<mxfile host="Electron" modified="2024-05-06T23:03:33.340Z" agent="Mozilla/5.0 (Windows NT 10.0; Win64; x64) AppleWebKit/537.36 (KHTML, like Gecko) draw.io/24.2.5 Chrome/120.0.6099.109 Electron/28.1.0 Safari/537.36" etag="TmfNfq7ox3ocaBlRgrtf" version="24.2.5" type="device">
  <diagram id="C5RBs43oDa-KdzZeNtuy" name="Page-1">
    <mxGraphModel dx="1329" dy="782" grid="1" gridSize="10" guides="1" tooltips="1" connect="1" arrows="1" fold="1" page="1" pageScale="1" pageWidth="827" pageHeight="1169" math="0" shadow="0">
      <root>
        <mxCell id="WIyWlLk6GJQsqaUBKTNV-0" />
        <mxCell id="WIyWlLk6GJQsqaUBKTNV-1" parent="WIyWlLk6GJQsqaUBKTNV-0" />
        <mxCell id="zkfFHV4jXpPFQw0GAbJ--0" value="Sensor_Humidade" style="swimlane;fontStyle=2;align=center;verticalAlign=top;childLayout=stackLayout;horizontal=1;startSize=26;horizontalStack=0;resizeParent=1;resizeLast=0;collapsible=1;marginBottom=0;rounded=0;shadow=0;strokeWidth=1;" parent="WIyWlLk6GJQsqaUBKTNV-1" vertex="1">
          <mxGeometry x="186" y="364" width="130" height="46" as="geometry">
            <mxRectangle x="230" y="140" width="160" height="26" as="alternateBounds" />
          </mxGeometry>
        </mxCell>
        <mxCell id="xDZk1ovhbHI0Wd0MX7OI-5" value="Consumo" style="swimlane;fontStyle=2;align=center;verticalAlign=top;childLayout=stackLayout;horizontal=1;startSize=26;horizontalStack=0;resizeParent=1;resizeLast=0;collapsible=1;marginBottom=0;rounded=0;shadow=0;strokeWidth=1;" parent="WIyWlLk6GJQsqaUBKTNV-1" vertex="1">
          <mxGeometry x="596" y="114" width="120" height="190" as="geometry">
            <mxRectangle x="230" y="140" width="160" height="26" as="alternateBounds" />
          </mxGeometry>
        </mxCell>
        <mxCell id="xDZk1ovhbHI0Wd0MX7OI-6" value="id" style="text;align=left;verticalAlign=top;spacingLeft=4;spacingRight=4;overflow=hidden;rotatable=0;points=[[0,0.5],[1,0.5]];portConstraint=eastwest;" parent="xDZk1ovhbHI0Wd0MX7OI-5" vertex="1">
          <mxGeometry y="26" width="120" height="26" as="geometry" />
        </mxCell>
        <mxCell id="7dreh9OGKPMaSzRSnH0e-9" value="sensor_id" style="text;align=left;verticalAlign=top;spacingLeft=4;spacingRight=4;overflow=hidden;rotatable=0;points=[[0,0.5],[1,0.5]];portConstraint=eastwest;" parent="xDZk1ovhbHI0Wd0MX7OI-5" vertex="1">
          <mxGeometry y="52" width="120" height="26" as="geometry" />
        </mxCell>
        <mxCell id="xDZk1ovhbHI0Wd0MX7OI-8" value="quantidade" style="text;align=left;verticalAlign=top;spacingLeft=4;spacingRight=4;overflow=hidden;rotatable=0;points=[[0,0.5],[1,0.5]];portConstraint=eastwest;" parent="xDZk1ovhbHI0Wd0MX7OI-5" vertex="1">
          <mxGeometry y="78" width="120" height="26" as="geometry" />
        </mxCell>
        <mxCell id="xDZk1ovhbHI0Wd0MX7OI-47" value="data" style="text;align=left;verticalAlign=top;spacingLeft=4;spacingRight=4;overflow=hidden;rotatable=0;points=[[0,0.5],[1,0.5]];portConstraint=eastwest;rounded=0;shadow=0;html=0;" parent="xDZk1ovhbHI0Wd0MX7OI-5" vertex="1">
          <mxGeometry y="104" width="120" height="26" as="geometry" />
        </mxCell>
        <mxCell id="xDZk1ovhbHI0Wd0MX7OI-48" value="hora" style="text;align=left;verticalAlign=top;spacingLeft=4;spacingRight=4;overflow=hidden;rotatable=0;points=[[0,0.5],[1,0.5]];portConstraint=eastwest;rounded=0;shadow=0;html=0;" parent="xDZk1ovhbHI0Wd0MX7OI-5" vertex="1">
          <mxGeometry y="130" width="120" height="26" as="geometry" />
        </mxCell>
        <mxCell id="xDZk1ovhbHI0Wd0MX7OI-49" value="escala" style="text;align=left;verticalAlign=top;spacingLeft=4;spacingRight=4;overflow=hidden;rotatable=0;points=[[0,0.5],[1,0.5]];portConstraint=eastwest;rounded=0;shadow=0;html=0;" parent="xDZk1ovhbHI0Wd0MX7OI-5" vertex="1">
          <mxGeometry y="156" width="120" height="26" as="geometry" />
        </mxCell>
        <mxCell id="xDZk1ovhbHI0Wd0MX7OI-14" value="Utilizador" style="swimlane;fontStyle=2;align=center;verticalAlign=top;childLayout=stackLayout;horizontal=1;startSize=26;horizontalStack=0;resizeParent=1;resizeLast=0;collapsible=1;marginBottom=0;rounded=0;shadow=0;strokeWidth=1;" parent="WIyWlLk6GJQsqaUBKTNV-1" vertex="1">
          <mxGeometry x="264" y="462" width="120" height="237" as="geometry">
            <mxRectangle x="230" y="140" width="160" height="26" as="alternateBounds" />
          </mxGeometry>
        </mxCell>
        <mxCell id="xDZk1ovhbHI0Wd0MX7OI-15" value="id" style="text;align=left;verticalAlign=top;spacingLeft=4;spacingRight=4;overflow=hidden;rotatable=0;points=[[0,0.5],[1,0.5]];portConstraint=eastwest;" parent="xDZk1ovhbHI0Wd0MX7OI-14" vertex="1">
          <mxGeometry y="26" width="120" height="26" as="geometry" />
        </mxCell>
        <mxCell id="xDZk1ovhbHI0Wd0MX7OI-16" value="nome" style="text;align=left;verticalAlign=top;spacingLeft=4;spacingRight=4;overflow=hidden;rotatable=0;points=[[0,0.5],[1,0.5]];portConstraint=eastwest;rounded=0;shadow=0;html=0;" parent="xDZk1ovhbHI0Wd0MX7OI-14" vertex="1">
          <mxGeometry y="52" width="120" height="26" as="geometry" />
        </mxCell>
        <mxCell id="xDZk1ovhbHI0Wd0MX7OI-17" value="email" style="text;align=left;verticalAlign=top;spacingLeft=4;spacingRight=4;overflow=hidden;rotatable=0;points=[[0,0.5],[1,0.5]];portConstraint=eastwest;" parent="xDZk1ovhbHI0Wd0MX7OI-14" vertex="1">
          <mxGeometry y="78" width="120" height="26" as="geometry" />
        </mxCell>
        <mxCell id="xDZk1ovhbHI0Wd0MX7OI-18" value="telemovel" style="text;align=left;verticalAlign=top;spacingLeft=4;spacingRight=4;overflow=hidden;rotatable=0;points=[[0,0.5],[1,0.5]];portConstraint=eastwest;rounded=0;shadow=0;html=0;" parent="xDZk1ovhbHI0Wd0MX7OI-14" vertex="1">
          <mxGeometry y="104" width="120" height="26" as="geometry" />
        </mxCell>
        <mxCell id="km6DPOSXUC_LyGMunRT4-3" value="codigoPostal" style="text;align=left;verticalAlign=top;spacingLeft=4;spacingRight=4;overflow=hidden;rotatable=0;points=[[0,0.5],[1,0.5]];portConstraint=eastwest;rounded=0;shadow=0;html=0;" vertex="1" parent="xDZk1ovhbHI0Wd0MX7OI-14">
          <mxGeometry y="130" width="120" height="26" as="geometry" />
        </mxCell>
        <mxCell id="km6DPOSXUC_LyGMunRT4-7" value="morada" style="text;align=left;verticalAlign=top;spacingLeft=4;spacingRight=4;overflow=hidden;rotatable=0;points=[[0,0.5],[1,0.5]];portConstraint=eastwest;rounded=0;shadow=0;html=0;" vertex="1" parent="xDZk1ovhbHI0Wd0MX7OI-14">
          <mxGeometry y="156" width="120" height="26" as="geometry" />
        </mxCell>
        <mxCell id="km6DPOSXUC_LyGMunRT4-8" value="casaNumero" style="text;align=left;verticalAlign=top;spacingLeft=4;spacingRight=4;overflow=hidden;rotatable=0;points=[[0,0.5],[1,0.5]];portConstraint=eastwest;rounded=0;shadow=0;html=0;" vertex="1" parent="xDZk1ovhbHI0Wd0MX7OI-14">
          <mxGeometry y="182" width="120" height="26" as="geometry" />
        </mxCell>
        <mxCell id="km6DPOSXUC_LyGMunRT4-28" value="palavraPasse" style="text;align=left;verticalAlign=top;spacingLeft=4;spacingRight=4;overflow=hidden;rotatable=0;points=[[0,0.5],[1,0.5]];portConstraint=eastwest;rounded=0;shadow=0;html=0;" vertex="1" parent="xDZk1ovhbHI0Wd0MX7OI-14">
          <mxGeometry y="208" width="120" height="26" as="geometry" />
        </mxCell>
        <mxCell id="xDZk1ovhbHI0Wd0MX7OI-23" value="Interruptor" style="swimlane;fontStyle=2;align=center;verticalAlign=top;childLayout=stackLayout;horizontal=1;startSize=26;horizontalStack=0;resizeParent=1;resizeLast=0;collapsible=1;marginBottom=0;rounded=0;shadow=0;strokeWidth=1;" parent="WIyWlLk6GJQsqaUBKTNV-1" vertex="1">
          <mxGeometry x="96" y="200" width="94" height="110" as="geometry">
            <mxRectangle x="230" y="140" width="160" height="26" as="alternateBounds" />
          </mxGeometry>
        </mxCell>
        <mxCell id="xDZk1ovhbHI0Wd0MX7OI-26" value="ligado" style="text;align=left;verticalAlign=top;spacingLeft=4;spacingRight=4;overflow=hidden;rotatable=0;points=[[0,0.5],[1,0.5]];portConstraint=eastwest;" parent="xDZk1ovhbHI0Wd0MX7OI-23" vertex="1">
          <mxGeometry y="26" width="94" height="58" as="geometry" />
        </mxCell>
        <mxCell id="xDZk1ovhbHI0Wd0MX7OI-32" value="Objetivo" style="swimlane;fontStyle=2;align=center;verticalAlign=top;childLayout=stackLayout;horizontal=1;startSize=26;horizontalStack=0;resizeParent=1;resizeLast=0;collapsible=1;marginBottom=0;rounded=0;shadow=0;strokeWidth=1;" parent="WIyWlLk6GJQsqaUBKTNV-1" vertex="1">
          <mxGeometry x="30" y="445" width="130" height="442" as="geometry">
            <mxRectangle x="230" y="140" width="160" height="26" as="alternateBounds" />
          </mxGeometry>
        </mxCell>
        <mxCell id="xDZk1ovhbHI0Wd0MX7OI-33" value="id" style="text;align=left;verticalAlign=top;spacingLeft=4;spacingRight=4;overflow=hidden;rotatable=0;points=[[0,0.5],[1,0.5]];portConstraint=eastwest;" parent="xDZk1ovhbHI0Wd0MX7OI-32" vertex="1">
          <mxGeometry y="26" width="130" height="26" as="geometry" />
        </mxCell>
        <mxCell id="xDZk1ovhbHI0Wd0MX7OI-34" value="janeiro" style="text;align=left;verticalAlign=top;spacingLeft=4;spacingRight=4;overflow=hidden;rotatable=0;points=[[0,0.5],[1,0.5]];portConstraint=eastwest;rounded=0;shadow=0;html=0;" parent="xDZk1ovhbHI0Wd0MX7OI-32" vertex="1">
          <mxGeometry y="52" width="130" height="26" as="geometry" />
        </mxCell>
        <mxCell id="xDZk1ovhbHI0Wd0MX7OI-35" value="fevereiro" style="text;align=left;verticalAlign=top;spacingLeft=4;spacingRight=4;overflow=hidden;rotatable=0;points=[[0,0.5],[1,0.5]];portConstraint=eastwest;" parent="xDZk1ovhbHI0Wd0MX7OI-32" vertex="1">
          <mxGeometry y="78" width="130" height="26" as="geometry" />
        </mxCell>
        <mxCell id="xDZk1ovhbHI0Wd0MX7OI-36" value="marco" style="text;align=left;verticalAlign=top;spacingLeft=4;spacingRight=4;overflow=hidden;rotatable=0;points=[[0,0.5],[1,0.5]];portConstraint=eastwest;rounded=0;shadow=0;html=0;" parent="xDZk1ovhbHI0Wd0MX7OI-32" vertex="1">
          <mxGeometry y="104" width="130" height="26" as="geometry" />
        </mxCell>
        <mxCell id="km6DPOSXUC_LyGMunRT4-72" value="abril" style="text;align=left;verticalAlign=top;spacingLeft=4;spacingRight=4;overflow=hidden;rotatable=0;points=[[0,0.5],[1,0.5]];portConstraint=eastwest;rounded=0;shadow=0;html=0;" vertex="1" parent="xDZk1ovhbHI0Wd0MX7OI-32">
          <mxGeometry y="130" width="130" height="26" as="geometry" />
        </mxCell>
        <mxCell id="km6DPOSXUC_LyGMunRT4-73" value="maio" style="text;align=left;verticalAlign=top;spacingLeft=4;spacingRight=4;overflow=hidden;rotatable=0;points=[[0,0.5],[1,0.5]];portConstraint=eastwest;rounded=0;shadow=0;html=0;" vertex="1" parent="xDZk1ovhbHI0Wd0MX7OI-32">
          <mxGeometry y="156" width="130" height="26" as="geometry" />
        </mxCell>
        <mxCell id="km6DPOSXUC_LyGMunRT4-74" value="junho" style="text;align=left;verticalAlign=top;spacingLeft=4;spacingRight=4;overflow=hidden;rotatable=0;points=[[0,0.5],[1,0.5]];portConstraint=eastwest;rounded=0;shadow=0;html=0;" vertex="1" parent="xDZk1ovhbHI0Wd0MX7OI-32">
          <mxGeometry y="182" width="130" height="26" as="geometry" />
        </mxCell>
        <mxCell id="km6DPOSXUC_LyGMunRT4-75" value="julho" style="text;align=left;verticalAlign=top;spacingLeft=4;spacingRight=4;overflow=hidden;rotatable=0;points=[[0,0.5],[1,0.5]];portConstraint=eastwest;rounded=0;shadow=0;html=0;" vertex="1" parent="xDZk1ovhbHI0Wd0MX7OI-32">
          <mxGeometry y="208" width="130" height="26" as="geometry" />
        </mxCell>
        <mxCell id="km6DPOSXUC_LyGMunRT4-76" value="agosto" style="text;align=left;verticalAlign=top;spacingLeft=4;spacingRight=4;overflow=hidden;rotatable=0;points=[[0,0.5],[1,0.5]];portConstraint=eastwest;rounded=0;shadow=0;html=0;" vertex="1" parent="xDZk1ovhbHI0Wd0MX7OI-32">
          <mxGeometry y="234" width="130" height="26" as="geometry" />
        </mxCell>
        <mxCell id="km6DPOSXUC_LyGMunRT4-77" value="setembro" style="text;align=left;verticalAlign=top;spacingLeft=4;spacingRight=4;overflow=hidden;rotatable=0;points=[[0,0.5],[1,0.5]];portConstraint=eastwest;rounded=0;shadow=0;html=0;" vertex="1" parent="xDZk1ovhbHI0Wd0MX7OI-32">
          <mxGeometry y="260" width="130" height="26" as="geometry" />
        </mxCell>
        <mxCell id="km6DPOSXUC_LyGMunRT4-78" value="outubro" style="text;align=left;verticalAlign=top;spacingLeft=4;spacingRight=4;overflow=hidden;rotatable=0;points=[[0,0.5],[1,0.5]];portConstraint=eastwest;rounded=0;shadow=0;html=0;" vertex="1" parent="xDZk1ovhbHI0Wd0MX7OI-32">
          <mxGeometry y="286" width="130" height="26" as="geometry" />
        </mxCell>
        <mxCell id="km6DPOSXUC_LyGMunRT4-79" value="novembro" style="text;align=left;verticalAlign=top;spacingLeft=4;spacingRight=4;overflow=hidden;rotatable=0;points=[[0,0.5],[1,0.5]];portConstraint=eastwest;rounded=0;shadow=0;html=0;" vertex="1" parent="xDZk1ovhbHI0Wd0MX7OI-32">
          <mxGeometry y="312" width="130" height="26" as="geometry" />
        </mxCell>
        <mxCell id="km6DPOSXUC_LyGMunRT4-80" value="dezembro" style="text;align=left;verticalAlign=top;spacingLeft=4;spacingRight=4;overflow=hidden;rotatable=0;points=[[0,0.5],[1,0.5]];portConstraint=eastwest;rounded=0;shadow=0;html=0;" vertex="1" parent="xDZk1ovhbHI0Wd0MX7OI-32">
          <mxGeometry y="338" width="130" height="26" as="geometry" />
        </mxCell>
        <mxCell id="km6DPOSXUC_LyGMunRT4-82" value="ano" style="text;align=left;verticalAlign=top;spacingLeft=4;spacingRight=4;overflow=hidden;rotatable=0;points=[[0,0.5],[1,0.5]];portConstraint=eastwest;rounded=0;shadow=0;html=0;" vertex="1" parent="xDZk1ovhbHI0Wd0MX7OI-32">
          <mxGeometry y="364" width="130" height="26" as="geometry" />
        </mxCell>
        <mxCell id="km6DPOSXUC_LyGMunRT4-81" value="tipo [Agua, Energia]" style="text;align=left;verticalAlign=top;spacingLeft=4;spacingRight=4;overflow=hidden;rotatable=0;points=[[0,0.5],[1,0.5]];portConstraint=eastwest;rounded=0;shadow=0;html=0;" vertex="1" parent="xDZk1ovhbHI0Wd0MX7OI-32">
          <mxGeometry y="390" width="130" height="26" as="geometry" />
        </mxCell>
        <mxCell id="km6DPOSXUC_LyGMunRT4-133" value="utilizador_id" style="text;align=left;verticalAlign=top;spacingLeft=4;spacingRight=4;overflow=hidden;rotatable=0;points=[[0,0.5],[1,0.5]];portConstraint=eastwest;" vertex="1" parent="xDZk1ovhbHI0Wd0MX7OI-32">
          <mxGeometry y="416" width="130" height="26" as="geometry" />
        </mxCell>
        <mxCell id="km6DPOSXUC_LyGMunRT4-68" style="edgeStyle=orthogonalEdgeStyle;rounded=0;orthogonalLoop=1;jettySize=auto;html=1;entryX=0.5;entryY=0;entryDx=0;entryDy=0;" edge="1" parent="WIyWlLk6GJQsqaUBKTNV-1" source="7dreh9OGKPMaSzRSnH0e-0" target="zkfFHV4jXpPFQw0GAbJ--0">
          <mxGeometry relative="1" as="geometry">
            <Array as="points">
              <mxPoint x="393" y="340" />
              <mxPoint x="251" y="340" />
            </Array>
          </mxGeometry>
        </mxCell>
        <mxCell id="km6DPOSXUC_LyGMunRT4-69" style="edgeStyle=orthogonalEdgeStyle;rounded=0;orthogonalLoop=1;jettySize=auto;html=1;entryX=0.5;entryY=0;entryDx=0;entryDy=0;" edge="1" parent="WIyWlLk6GJQsqaUBKTNV-1" source="7dreh9OGKPMaSzRSnH0e-0" target="km6DPOSXUC_LyGMunRT4-56">
          <mxGeometry relative="1" as="geometry" />
        </mxCell>
        <mxCell id="km6DPOSXUC_LyGMunRT4-70" style="edgeStyle=orthogonalEdgeStyle;rounded=0;orthogonalLoop=1;jettySize=auto;html=1;" edge="1" parent="WIyWlLk6GJQsqaUBKTNV-1" source="7dreh9OGKPMaSzRSnH0e-0" target="km6DPOSXUC_LyGMunRT4-62">
          <mxGeometry relative="1" as="geometry">
            <Array as="points">
              <mxPoint x="393" y="340" />
              <mxPoint x="531" y="340" />
            </Array>
          </mxGeometry>
        </mxCell>
        <mxCell id="7dreh9OGKPMaSzRSnH0e-0" value="Sensor" style="swimlane;fontStyle=2;align=center;verticalAlign=top;childLayout=stackLayout;horizontal=1;startSize=26;horizontalStack=0;resizeParent=1;resizeLast=0;collapsible=1;marginBottom=0;rounded=0;shadow=0;strokeWidth=1;" parent="WIyWlLk6GJQsqaUBKTNV-1" vertex="1">
          <mxGeometry x="340" y="200" width="106" height="114" as="geometry">
            <mxRectangle x="230" y="140" width="160" height="26" as="alternateBounds" />
          </mxGeometry>
        </mxCell>
        <mxCell id="7dreh9OGKPMaSzRSnH0e-2" value="unidade" style="text;align=left;verticalAlign=top;spacingLeft=4;spacingRight=4;overflow=hidden;rotatable=0;points=[[0,0.5],[1,0.5]];portConstraint=eastwest;" parent="7dreh9OGKPMaSzRSnH0e-0" vertex="1">
          <mxGeometry y="26" width="106" height="26" as="geometry" />
        </mxCell>
        <mxCell id="7dreh9OGKPMaSzRSnH0e-3" value="localizacao" style="text;align=left;verticalAlign=top;spacingLeft=4;spacingRight=4;overflow=hidden;rotatable=0;points=[[0,0.5],[1,0.5]];portConstraint=eastwest;rounded=0;shadow=0;html=0;" parent="7dreh9OGKPMaSzRSnH0e-0" vertex="1">
          <mxGeometry y="52" width="106" height="26" as="geometry" />
        </mxCell>
        <mxCell id="km6DPOSXUC_LyGMunRT4-138" value="urlGetDados" style="text;align=left;verticalAlign=top;spacingLeft=4;spacingRight=4;overflow=hidden;rotatable=0;points=[[0,0.5],[1,0.5]];portConstraint=eastwest;rounded=0;shadow=0;html=0;" vertex="1" parent="7dreh9OGKPMaSzRSnH0e-0">
          <mxGeometry y="78" width="106" height="26" as="geometry" />
        </mxCell>
        <mxCell id="km6DPOSXUC_LyGMunRT4-44" style="edgeStyle=orthogonalEdgeStyle;rounded=0;orthogonalLoop=1;jettySize=auto;html=1;entryX=0.5;entryY=0;entryDx=0;entryDy=0;" edge="1" parent="WIyWlLk6GJQsqaUBKTNV-1" source="km6DPOSXUC_LyGMunRT4-29" target="km6DPOSXUC_LyGMunRT4-36">
          <mxGeometry relative="1" as="geometry" />
        </mxCell>
        <mxCell id="km6DPOSXUC_LyGMunRT4-52" style="edgeStyle=orthogonalEdgeStyle;rounded=0;orthogonalLoop=1;jettySize=auto;html=1;" edge="1" parent="WIyWlLk6GJQsqaUBKTNV-1" source="km6DPOSXUC_LyGMunRT4-29" target="km6DPOSXUC_LyGMunRT4-45">
          <mxGeometry relative="1" as="geometry" />
        </mxCell>
        <mxCell id="km6DPOSXUC_LyGMunRT4-29" value="Contrato" style="swimlane;fontStyle=2;align=center;verticalAlign=top;childLayout=stackLayout;horizontal=1;startSize=26;horizontalStack=0;resizeParent=1;resizeLast=0;collapsible=1;marginBottom=0;rounded=0;shadow=0;strokeWidth=1;" vertex="1" parent="WIyWlLk6GJQsqaUBKTNV-1">
          <mxGeometry x="514" y="498.5" width="160" height="130" as="geometry">
            <mxRectangle x="230" y="140" width="160" height="26" as="alternateBounds" />
          </mxGeometry>
        </mxCell>
        <mxCell id="km6DPOSXUC_LyGMunRT4-30" value="id" style="text;align=left;verticalAlign=top;spacingLeft=4;spacingRight=4;overflow=hidden;rotatable=0;points=[[0,0.5],[1,0.5]];portConstraint=eastwest;" vertex="1" parent="km6DPOSXUC_LyGMunRT4-29">
          <mxGeometry y="26" width="160" height="26" as="geometry" />
        </mxCell>
        <mxCell id="km6DPOSXUC_LyGMunRT4-33" value="operadora" style="text;align=left;verticalAlign=top;spacingLeft=4;spacingRight=4;overflow=hidden;rotatable=0;points=[[0,0.5],[1,0.5]];portConstraint=eastwest;rounded=0;shadow=0;html=0;" vertex="1" parent="km6DPOSXUC_LyGMunRT4-29">
          <mxGeometry y="52" width="160" height="26" as="geometry" />
        </mxCell>
        <mxCell id="km6DPOSXUC_LyGMunRT4-34" value="precoFixo" style="text;align=left;verticalAlign=top;spacingLeft=4;spacingRight=4;overflow=hidden;rotatable=0;points=[[0,0.5],[1,0.5]];portConstraint=eastwest;rounded=0;shadow=0;html=0;" vertex="1" parent="km6DPOSXUC_LyGMunRT4-29">
          <mxGeometry y="78" width="160" height="26" as="geometry" />
        </mxCell>
        <mxCell id="km6DPOSXUC_LyGMunRT4-85" value="utilizador_id" style="text;align=left;verticalAlign=top;spacingLeft=4;spacingRight=4;overflow=hidden;rotatable=0;points=[[0,0.5],[1,0.5]];portConstraint=eastwest;rounded=0;shadow=0;html=0;" vertex="1" parent="km6DPOSXUC_LyGMunRT4-29">
          <mxGeometry y="104" width="160" height="26" as="geometry" />
        </mxCell>
        <mxCell id="km6DPOSXUC_LyGMunRT4-36" value="Agua" style="swimlane;fontStyle=2;align=center;verticalAlign=top;childLayout=stackLayout;horizontal=1;startSize=26;horizontalStack=0;resizeParent=1;resizeLast=0;collapsible=1;marginBottom=0;rounded=0;shadow=0;strokeWidth=1;" vertex="1" parent="WIyWlLk6GJQsqaUBKTNV-1">
          <mxGeometry x="424" y="718.5" width="110" height="104" as="geometry">
            <mxRectangle x="230" y="140" width="160" height="26" as="alternateBounds" />
          </mxGeometry>
        </mxCell>
        <mxCell id="km6DPOSXUC_LyGMunRT4-9" value="operador" style="text;align=left;verticalAlign=top;spacingLeft=4;spacingRight=4;overflow=hidden;rotatable=0;points=[[0,0.5],[1,0.5]];portConstraint=eastwest;" vertex="1" parent="km6DPOSXUC_LyGMunRT4-36">
          <mxGeometry y="26" width="110" height="26" as="geometry" />
        </mxCell>
        <mxCell id="km6DPOSXUC_LyGMunRT4-11" value="precoConsumo" style="text;align=left;verticalAlign=top;spacingLeft=4;spacingRight=4;overflow=hidden;rotatable=0;points=[[0,0.5],[1,0.5]];portConstraint=eastwest;rounded=0;shadow=0;html=0;" vertex="1" parent="km6DPOSXUC_LyGMunRT4-36">
          <mxGeometry y="52" width="110" height="26" as="geometry" />
        </mxCell>
        <mxCell id="km6DPOSXUC_LyGMunRT4-45" value="Energia" style="swimlane;fontStyle=2;align=center;verticalAlign=top;childLayout=stackLayout;horizontal=1;startSize=26;horizontalStack=0;resizeParent=1;resizeLast=0;collapsible=1;marginBottom=0;rounded=0;shadow=0;strokeWidth=1;" vertex="1" parent="WIyWlLk6GJQsqaUBKTNV-1">
          <mxGeometry x="604" y="718.5" width="120" height="113.5" as="geometry">
            <mxRectangle x="230" y="140" width="160" height="26" as="alternateBounds" />
          </mxGeometry>
        </mxCell>
        <mxCell id="km6DPOSXUC_LyGMunRT4-15" value="potencia" style="text;align=left;verticalAlign=top;spacingLeft=4;spacingRight=4;overflow=hidden;rotatable=0;points=[[0,0.5],[1,0.5]];portConstraint=eastwest;rounded=0;shadow=0;html=0;" vertex="1" parent="km6DPOSXUC_LyGMunRT4-45">
          <mxGeometry y="26" width="120" height="26" as="geometry" />
        </mxCell>
        <mxCell id="km6DPOSXUC_LyGMunRT4-14" value="tarifa" style="text;align=left;verticalAlign=top;spacingLeft=4;spacingRight=4;overflow=hidden;rotatable=0;points=[[0,0.5],[1,0.5]];portConstraint=eastwest;rounded=0;shadow=0;html=0;" vertex="1" parent="km6DPOSXUC_LyGMunRT4-45">
          <mxGeometry y="52" width="120" height="26" as="geometry" />
        </mxCell>
        <mxCell id="km6DPOSXUC_LyGMunRT4-56" value="Sensor_Agua" style="swimlane;fontStyle=2;align=center;verticalAlign=top;childLayout=stackLayout;horizontal=1;startSize=26;horizontalStack=0;resizeParent=1;resizeLast=0;collapsible=1;marginBottom=0;rounded=0;shadow=0;strokeWidth=1;" vertex="1" parent="WIyWlLk6GJQsqaUBKTNV-1">
          <mxGeometry x="335" y="363.5" width="116" height="46.5" as="geometry">
            <mxRectangle x="230" y="140" width="160" height="26" as="alternateBounds" />
          </mxGeometry>
        </mxCell>
        <mxCell id="km6DPOSXUC_LyGMunRT4-62" value="Sensor_Corrente" style="swimlane;fontStyle=2;align=center;verticalAlign=top;childLayout=stackLayout;horizontal=1;startSize=26;horizontalStack=0;resizeParent=1;resizeLast=0;collapsible=1;marginBottom=0;rounded=0;shadow=0;strokeWidth=1;" vertex="1" parent="WIyWlLk6GJQsqaUBKTNV-1">
          <mxGeometry x="466" y="364" width="130" height="46" as="geometry">
            <mxRectangle x="230" y="140" width="160" height="26" as="alternateBounds" />
          </mxGeometry>
        </mxCell>
        <mxCell id="km6DPOSXUC_LyGMunRT4-89" style="edgeStyle=orthogonalEdgeStyle;rounded=0;orthogonalLoop=1;jettySize=auto;html=1;endArrow=ERmandOne;endFill=0;" edge="1" parent="WIyWlLk6GJQsqaUBKTNV-1" source="km6DPOSXUC_LyGMunRT4-87" target="km6DPOSXUC_LyGMunRT4-85">
          <mxGeometry relative="1" as="geometry" />
        </mxCell>
        <mxCell id="km6DPOSXUC_LyGMunRT4-120" style="edgeStyle=orthogonalEdgeStyle;rounded=0;orthogonalLoop=1;jettySize=auto;html=1;endArrow=ERone;endFill=0;" edge="1" parent="WIyWlLk6GJQsqaUBKTNV-1" source="km6DPOSXUC_LyGMunRT4-87" target="xDZk1ovhbHI0Wd0MX7OI-15">
          <mxGeometry relative="1" as="geometry" />
        </mxCell>
        <mxCell id="km6DPOSXUC_LyGMunRT4-87" value="" style="rhombus;whiteSpace=wrap;html=1;" vertex="1" parent="WIyWlLk6GJQsqaUBKTNV-1">
          <mxGeometry x="424" y="588.5" width="30" height="23.5" as="geometry" />
        </mxCell>
        <mxCell id="km6DPOSXUC_LyGMunRT4-90" value="(t,e)" style="text;html=1;align=center;verticalAlign=middle;resizable=0;points=[];autosize=1;strokeColor=none;fillColor=none;" vertex="1" parent="WIyWlLk6GJQsqaUBKTNV-1">
          <mxGeometry x="594" y="640" width="40" height="30" as="geometry" />
        </mxCell>
        <mxCell id="km6DPOSXUC_LyGMunRT4-93" style="edgeStyle=orthogonalEdgeStyle;rounded=0;orthogonalLoop=1;jettySize=auto;html=1;entryX=0;entryY=0.5;entryDx=0;entryDy=0;endArrow=ERmany;endFill=0;" edge="1" parent="WIyWlLk6GJQsqaUBKTNV-1" source="km6DPOSXUC_LyGMunRT4-91" target="7dreh9OGKPMaSzRSnH0e-9">
          <mxGeometry relative="1" as="geometry" />
        </mxCell>
        <mxCell id="km6DPOSXUC_LyGMunRT4-119" style="edgeStyle=orthogonalEdgeStyle;rounded=0;orthogonalLoop=1;jettySize=auto;html=1;endArrow=ERone;endFill=0;" edge="1" parent="WIyWlLk6GJQsqaUBKTNV-1" source="km6DPOSXUC_LyGMunRT4-91">
          <mxGeometry relative="1" as="geometry">
            <mxPoint x="446.0000000000002" y="239.0769230769231" as="targetPoint" />
          </mxGeometry>
        </mxCell>
        <mxCell id="km6DPOSXUC_LyGMunRT4-91" value="" style="rhombus;whiteSpace=wrap;html=1;" vertex="1" parent="WIyWlLk6GJQsqaUBKTNV-1">
          <mxGeometry x="510" y="224.5" width="40" height="29" as="geometry" />
        </mxCell>
        <mxCell id="km6DPOSXUC_LyGMunRT4-94" value="Preco" style="swimlane;fontStyle=2;align=center;verticalAlign=top;childLayout=stackLayout;horizontal=1;startSize=26;horizontalStack=0;resizeParent=1;resizeLast=0;collapsible=1;marginBottom=0;rounded=0;shadow=0;strokeWidth=1;" vertex="1" parent="WIyWlLk6GJQsqaUBKTNV-1">
          <mxGeometry x="424" y="843" width="110" height="182" as="geometry">
            <mxRectangle x="230" y="140" width="160" height="26" as="alternateBounds" />
          </mxGeometry>
        </mxCell>
        <mxCell id="km6DPOSXUC_LyGMunRT4-95" value="id" style="text;align=left;verticalAlign=top;spacingLeft=4;spacingRight=4;overflow=hidden;rotatable=0;points=[[0,0.5],[1,0.5]];portConstraint=eastwest;" vertex="1" parent="km6DPOSXUC_LyGMunRT4-94">
          <mxGeometry y="26" width="110" height="26" as="geometry" />
        </mxCell>
        <mxCell id="km6DPOSXUC_LyGMunRT4-96" value="energia_id" style="text;align=left;verticalAlign=top;spacingLeft=4;spacingRight=4;overflow=hidden;rotatable=0;points=[[0,0.5],[1,0.5]];portConstraint=eastwest;" vertex="1" parent="km6DPOSXUC_LyGMunRT4-94">
          <mxGeometry y="52" width="110" height="26" as="geometry" />
        </mxCell>
        <mxCell id="km6DPOSXUC_LyGMunRT4-97" value="horarioDe" style="text;align=left;verticalAlign=top;spacingLeft=4;spacingRight=4;overflow=hidden;rotatable=0;points=[[0,0.5],[1,0.5]];portConstraint=eastwest;rounded=0;shadow=0;html=0;" vertex="1" parent="km6DPOSXUC_LyGMunRT4-94">
          <mxGeometry y="78" width="110" height="26" as="geometry" />
        </mxCell>
        <mxCell id="km6DPOSXUC_LyGMunRT4-98" value="horarioAte" style="text;align=left;verticalAlign=top;spacingLeft=4;spacingRight=4;overflow=hidden;rotatable=0;points=[[0,0.5],[1,0.5]];portConstraint=eastwest;rounded=0;shadow=0;html=0;" vertex="1" parent="km6DPOSXUC_LyGMunRT4-94">
          <mxGeometry y="104" width="110" height="26" as="geometry" />
        </mxCell>
        <mxCell id="km6DPOSXUC_LyGMunRT4-99" value="preco" style="text;align=left;verticalAlign=top;spacingLeft=4;spacingRight=4;overflow=hidden;rotatable=0;points=[[0,0.5],[1,0.5]];portConstraint=eastwest;rounded=0;shadow=0;html=0;" vertex="1" parent="km6DPOSXUC_LyGMunRT4-94">
          <mxGeometry y="130" width="110" height="26" as="geometry" />
        </mxCell>
        <mxCell id="km6DPOSXUC_LyGMunRT4-115" value="descricao" style="text;align=left;verticalAlign=top;spacingLeft=4;spacingRight=4;overflow=hidden;rotatable=0;points=[[0,0.5],[1,0.5]];portConstraint=eastwest;" vertex="1" parent="km6DPOSXUC_LyGMunRT4-94">
          <mxGeometry y="156" width="110" height="26" as="geometry" />
        </mxCell>
        <mxCell id="km6DPOSXUC_LyGMunRT4-104" style="edgeStyle=orthogonalEdgeStyle;rounded=0;orthogonalLoop=1;jettySize=auto;html=1;endArrow=ERoneToMany;endFill=0;" edge="1" parent="WIyWlLk6GJQsqaUBKTNV-1" source="km6DPOSXUC_LyGMunRT4-101" target="km6DPOSXUC_LyGMunRT4-96">
          <mxGeometry relative="1" as="geometry" />
        </mxCell>
        <mxCell id="km6DPOSXUC_LyGMunRT4-121" style="edgeStyle=orthogonalEdgeStyle;rounded=0;orthogonalLoop=1;jettySize=auto;html=1;entryX=0;entryY=0.5;entryDx=0;entryDy=0;endArrow=ERone;endFill=0;" edge="1" parent="WIyWlLk6GJQsqaUBKTNV-1">
          <mxGeometry relative="1" as="geometry">
            <mxPoint x="604.9645390070923" y="908.7777777777778" as="sourcePoint" />
            <mxPoint x="603" y="757.4999999999998" as="targetPoint" />
            <Array as="points">
              <mxPoint x="663" y="853" />
              <mxPoint x="583" y="853" />
              <mxPoint x="583" y="758" />
            </Array>
          </mxGeometry>
        </mxCell>
        <mxCell id="km6DPOSXUC_LyGMunRT4-101" value="" style="rhombus;whiteSpace=wrap;html=1;" vertex="1" parent="WIyWlLk6GJQsqaUBKTNV-1">
          <mxGeometry x="576" y="897" width="30" height="23.5" as="geometry" />
        </mxCell>
        <mxCell id="km6DPOSXUC_LyGMunRT4-111" style="edgeStyle=orthogonalEdgeStyle;rounded=0;orthogonalLoop=1;jettySize=auto;html=1;entryX=0.5;entryY=0;entryDx=0;entryDy=0;" edge="1" parent="WIyWlLk6GJQsqaUBKTNV-1" source="km6DPOSXUC_LyGMunRT4-106" target="xDZk1ovhbHI0Wd0MX7OI-23">
          <mxGeometry relative="1" as="geometry">
            <Array as="points">
              <mxPoint x="275" y="170" />
              <mxPoint x="151" y="170" />
            </Array>
          </mxGeometry>
        </mxCell>
        <mxCell id="km6DPOSXUC_LyGMunRT4-112" style="edgeStyle=orthogonalEdgeStyle;rounded=0;orthogonalLoop=1;jettySize=auto;html=1;entryX=0.5;entryY=0;entryDx=0;entryDy=0;" edge="1" parent="WIyWlLk6GJQsqaUBKTNV-1" source="km6DPOSXUC_LyGMunRT4-106" target="7dreh9OGKPMaSzRSnH0e-0">
          <mxGeometry relative="1" as="geometry">
            <Array as="points">
              <mxPoint x="275" y="170" />
              <mxPoint x="393" y="170" />
            </Array>
          </mxGeometry>
        </mxCell>
        <mxCell id="km6DPOSXUC_LyGMunRT4-106" value="Dispositivo" style="swimlane;fontStyle=2;align=center;verticalAlign=top;childLayout=stackLayout;horizontal=1;startSize=26;horizontalStack=0;resizeParent=1;resizeLast=0;collapsible=1;marginBottom=0;rounded=0;shadow=0;strokeWidth=1;" vertex="1" parent="WIyWlLk6GJQsqaUBKTNV-1">
          <mxGeometry x="220" y="10" width="110" height="130" as="geometry">
            <mxRectangle x="230" y="140" width="160" height="26" as="alternateBounds" />
          </mxGeometry>
        </mxCell>
        <mxCell id="km6DPOSXUC_LyGMunRT4-107" value="id" style="text;align=left;verticalAlign=top;spacingLeft=4;spacingRight=4;overflow=hidden;rotatable=0;points=[[0,0.5],[1,0.5]];portConstraint=eastwest;" vertex="1" parent="km6DPOSXUC_LyGMunRT4-106">
          <mxGeometry y="26" width="110" height="26" as="geometry" />
        </mxCell>
        <mxCell id="km6DPOSXUC_LyGMunRT4-108" value="descricao" style="text;align=left;verticalAlign=top;spacingLeft=4;spacingRight=4;overflow=hidden;rotatable=0;points=[[0,0.5],[1,0.5]];portConstraint=eastwest;rounded=0;shadow=0;html=0;" vertex="1" parent="km6DPOSXUC_LyGMunRT4-106">
          <mxGeometry y="52" width="110" height="26" as="geometry" />
        </mxCell>
        <mxCell id="km6DPOSXUC_LyGMunRT4-113" value="localizacao" style="text;align=left;verticalAlign=top;spacingLeft=4;spacingRight=4;overflow=hidden;rotatable=0;points=[[0,0.5],[1,0.5]];portConstraint=eastwest;rounded=0;shadow=0;html=0;" vertex="1" parent="km6DPOSXUC_LyGMunRT4-106">
          <mxGeometry y="78" width="110" height="26" as="geometry" />
        </mxCell>
        <mxCell id="km6DPOSXUC_LyGMunRT4-117" value="urlServidor" style="text;align=left;verticalAlign=top;spacingLeft=4;spacingRight=4;overflow=hidden;rotatable=0;points=[[0,0.5],[1,0.5]];portConstraint=eastwest;rounded=0;shadow=0;html=0;" vertex="1" parent="km6DPOSXUC_LyGMunRT4-106">
          <mxGeometry y="104" width="110" height="26" as="geometry" />
        </mxCell>
        <mxCell id="km6DPOSXUC_LyGMunRT4-131" style="edgeStyle=orthogonalEdgeStyle;rounded=0;orthogonalLoop=1;jettySize=auto;html=1;" edge="1" parent="WIyWlLk6GJQsqaUBKTNV-1" source="km6DPOSXUC_LyGMunRT4-124" target="km6DPOSXUC_LyGMunRT4-128">
          <mxGeometry relative="1" as="geometry">
            <Array as="points">
              <mxPoint x="95" y="340" />
            </Array>
          </mxGeometry>
        </mxCell>
        <mxCell id="km6DPOSXUC_LyGMunRT4-124" value="(t,e)" style="text;html=1;align=center;verticalAlign=middle;resizable=0;points=[];autosize=1;strokeColor=none;fillColor=none;" vertex="1" parent="WIyWlLk6GJQsqaUBKTNV-1">
          <mxGeometry x="387" y="311" width="40" height="30" as="geometry" />
        </mxCell>
        <mxCell id="km6DPOSXUC_LyGMunRT4-125" value="(t,e)" style="text;html=1;align=center;verticalAlign=middle;resizable=0;points=[];autosize=1;strokeColor=none;fillColor=none;" vertex="1" parent="WIyWlLk6GJQsqaUBKTNV-1">
          <mxGeometry x="270" y="138" width="40" height="30" as="geometry" />
        </mxCell>
        <mxCell id="km6DPOSXUC_LyGMunRT4-128" value="Sensor_Temperatura" style="swimlane;fontStyle=2;align=center;verticalAlign=top;childLayout=stackLayout;horizontal=1;startSize=26;horizontalStack=0;resizeParent=1;resizeLast=0;collapsible=1;marginBottom=0;rounded=0;shadow=0;strokeWidth=1;" vertex="1" parent="WIyWlLk6GJQsqaUBKTNV-1">
          <mxGeometry x="30" y="363.5" width="130" height="46.5" as="geometry">
            <mxRectangle x="230" y="140" width="160" height="26" as="alternateBounds" />
          </mxGeometry>
        </mxCell>
        <mxCell id="km6DPOSXUC_LyGMunRT4-135" style="edgeStyle=orthogonalEdgeStyle;rounded=0;orthogonalLoop=1;jettySize=auto;html=1;endArrow=ERoneToMany;endFill=0;" edge="1" parent="WIyWlLk6GJQsqaUBKTNV-1" source="km6DPOSXUC_LyGMunRT4-134" target="km6DPOSXUC_LyGMunRT4-133">
          <mxGeometry relative="1" as="geometry" />
        </mxCell>
        <mxCell id="km6DPOSXUC_LyGMunRT4-136" style="edgeStyle=orthogonalEdgeStyle;rounded=0;orthogonalLoop=1;jettySize=auto;html=1;entryX=0;entryY=0.5;entryDx=0;entryDy=0;endArrow=ERone;endFill=0;" edge="1" parent="WIyWlLk6GJQsqaUBKTNV-1" source="km6DPOSXUC_LyGMunRT4-134" target="xDZk1ovhbHI0Wd0MX7OI-15">
          <mxGeometry relative="1" as="geometry" />
        </mxCell>
        <mxCell id="km6DPOSXUC_LyGMunRT4-134" value="" style="rhombus;whiteSpace=wrap;html=1;" vertex="1" parent="WIyWlLk6GJQsqaUBKTNV-1">
          <mxGeometry x="200" y="654.25" width="30" height="23.5" as="geometry" />
        </mxCell>
      </root>
    </mxGraphModel>
  </diagram>
</mxfile>
